<svg width="183" height="55" viewBox="0 0 183 55" fill="none" xmlns="http://www.w3.org/2000/svg">
<g clip-path="url(#clip0_3430_5227)">
<path fill-rule="evenodd" clip-rule="evenodd" d="M15.127 0.660159H168.477C169.024 0.660159 169.581 0.659982 170.129 0.662699C170.508 0.664861 170.895 0.670563 171.277 0.676191C171.363 0.677457 171.449 0.67872 171.534 0.679938C172.556 0.690056 173.575 0.770336 174.583 0.920066C175.595 1.07347 176.575 1.36055 177.492 1.77184C179.325 2.61099 180.817 3.94119 181.758 5.57536C182.218 6.38962 182.536 7.26147 182.702 8.16101C182.872 9.06006 182.966 9.96915 182.985 10.8807C182.991 11.2973 182.991 11.7152 182.991 12.1318C183.003 12.6239 183.003 13.1175 183.003 13.615V42.0465C183.003 42.548 183.003 43.0388 182.991 43.5324C182.991 43.9542 182.991 44.3628 182.985 44.7848C182.966 45.6963 182.872 46.6054 182.702 47.5044C182.537 48.4044 182.218 49.2768 181.758 50.0913C181.291 50.902 180.683 51.6421 179.957 52.2844C179.237 52.9322 178.404 53.4728 177.492 53.8856C176.575 54.298 175.595 54.5868 174.583 54.7426C173.575 54.8911 172.556 54.9714 171.534 54.9827C171.07 54.992 170.593 54.9973 170.129 54.9973C169.581 55 169.024 55 168.477 55H15.127C14.568 55 14.0157 55 13.4582 54.9973C12.9915 54.9973 12.5286 54.992 12.0574 54.9827C11.0339 54.9707 10.0128 54.8904 9.00276 54.7426C7.99417 54.5879 7.0174 54.299 6.10515 53.8856C5.19181 53.473 4.35875 52.9324 3.63777 52.2844C2.91012 51.6446 2.30359 50.904 1.84175 50.0913C1.37798 49.2774 1.05669 48.4049 0.889031 47.5044C0.719315 46.6055 0.627987 45.6962 0.615867 44.7848C0.606203 44.4965 0.602444 44.2145 0.598655 43.9302C0.596898 43.7983 0.595135 43.666 0.592773 43.5324V12.1318C0.595163 11.9982 0.59694 11.8646 0.598718 11.7308C0.602485 11.4474 0.606256 11.1638 0.615867 10.8808C0.627983 9.96928 0.719311 9.05999 0.889031 8.16107C1.05715 7.26101 1.37842 6.38908 1.84175 5.57541C2.3038 4.76012 2.91025 4.01651 3.63777 3.37317C4.36149 2.72802 5.19402 2.18775 6.10515 1.77197C7.01741 1.35967 7.99429 1.07251 9.00276 0.920188C10.0127 0.771115 11.0338 0.690863 12.0574 0.680128C12.1552 0.678749 12.2527 0.677316 12.3499 0.675887C12.721 0.670431 13.0884 0.665029 13.4582 0.662876C14.0157 0.660159 14.568 0.660159 15.127 0.660159ZM11.9536 53.8009C12.4152 53.8101 12.8692 53.8154 13.3344 53.8154L168.613 53.8181L170.268 53.8154C170.723 53.8154 171.191 53.8101 171.639 53.8009C172.595 53.7905 173.549 53.7164 174.493 53.5792C175.379 53.4455 176.238 53.1936 177.04 52.8322C177.831 52.4742 178.553 52.0051 179.177 51.4428C179.802 50.8917 180.325 50.2562 180.728 49.56C181.132 48.8457 181.41 48.0803 181.552 47.2908C181.708 46.4581 181.795 45.6164 181.813 44.7723C181.819 44.3557 181.819 43.9509 181.819 43.5091C181.831 43.0234 181.831 42.5417 181.831 42.0481V13.6106C181.831 13.1217 181.831 12.6367 181.819 12.1271C181.819 11.7158 181.819 11.3024 181.815 10.9176C181.796 10.0582 181.708 9.2012 181.549 8.35332C181.405 7.57408 181.13 6.8187 180.732 6.1128C179.919 4.70115 178.629 3.55139 177.044 2.82465C176.24 2.46522 175.38 2.21433 174.493 2.08024C173.555 1.94322 172.606 1.86937 171.655 1.85932L170.261 1.84206H13.3352L11.9573 1.85865C10.9978 1.86923 10.0405 1.94374 9.09346 2.08157C8.21508 2.214 7.36404 2.46315 6.56887 2.82067C5.77784 3.18128 5.05527 3.65008 4.42753 4.20998C3.79907 4.76461 3.27561 5.40606 2.87743 6.10948C2.47315 6.82029 2.19331 7.58189 2.04757 8.36791C1.89095 9.20889 1.80646 10.0593 1.79481 10.9116C1.78588 11.1877 1.77238 12.1271 1.77238 12.1271V43.5157C1.77238 43.5157 1.78505 44.4698 1.79473 44.7564C1.8069 45.6101 1.89189 46.4618 2.04898 47.3041C2.19444 48.088 2.47407 48.8474 2.87813 49.5559C3.27778 50.2598 3.80417 50.9008 4.43643 51.4534C5.05967 52.0127 5.77993 52.4791 6.56962 52.8348C7.36662 53.1934 8.21927 53.4444 9.09943 53.5792C10.0434 53.7157 10.9974 53.7898 11.9536 53.8009Z" fill="#A6A6A6" fill-opacity="0.4"/>
<path d="M13.333 53.8151C12.8678 53.8151 12.4138 53.8098 11.9522 53.8006C10.996 53.7895 10.042 53.7154 9.09805 53.579C8.21788 53.4441 7.36524 53.1932 6.56824 52.8345C5.77855 52.4788 5.05829 52.0124 4.43505 51.4532C3.80278 50.9005 3.2764 50.2595 2.87674 49.5556C2.47269 48.8472 2.19306 48.0877 2.04759 47.3039C1.8905 46.4616 1.80551 45.6099 1.79335 44.7561C1.78367 44.4696 1.771 43.5154 1.771 43.5154V12.1269C1.771 12.1269 1.78449 11.1874 1.79343 10.9114C1.80507 10.059 1.88957 9.20863 2.04619 8.36765C2.19192 7.58162 2.47177 6.82003 2.87604 6.10922C3.27423 5.4058 3.79769 4.76434 4.42614 4.20972C5.05389 3.64982 5.77646 3.18102 6.56749 2.8204C7.36266 2.46289 8.21369 2.21374 9.09208 2.08131C10.0391 1.94348 10.9964 1.86897 11.956 1.85839L13.3338 1.8418H170.259L171.654 1.85905C172.605 1.86911 173.553 1.94296 174.492 2.07998C175.379 2.21407 176.239 2.46495 177.043 2.82439C178.628 3.55112 179.917 4.70089 180.731 6.11254C181.128 6.81843 181.404 7.57382 181.548 8.35306C181.706 9.20094 181.795 10.058 181.813 10.9174C181.818 11.3022 181.818 11.7155 181.818 12.1269C181.83 12.6364 181.83 13.1214 181.83 13.6104V42.0478C181.83 42.5415 181.83 43.0232 181.818 43.5088C181.818 43.9507 181.818 44.3554 181.812 44.772C181.794 45.6161 181.707 46.4578 181.551 47.2906C181.408 48.0801 181.13 48.8454 180.726 49.5597C180.324 50.256 179.8 50.8914 179.175 51.4426C178.552 52.0048 177.83 52.4739 177.039 52.8319C176.237 53.1934 175.378 53.4452 174.492 53.579C173.548 53.7162 172.594 53.7902 171.637 53.8006C171.19 53.8098 170.722 53.8151 170.267 53.8151L168.612 53.8179L13.333 53.8151Z" fill="black"/>
<path d="M37.2151 28.2407C37.2296 27.1068 37.5292 25.995 38.0859 25.0088C38.6426 24.0226 39.4384 23.194 40.3992 22.6001C39.7888 21.7236 38.9836 21.0024 38.0475 20.4935C37.1113 19.9847 36.0701 19.7024 35.0064 19.6689C32.7375 19.4294 30.5378 21.034 29.3816 21.034C28.203 21.034 26.4228 19.6927 24.5058 19.7323C23.2659 19.7726 22.0575 20.1351 20.9983 20.7846C19.9391 21.434 19.0654 22.3482 18.4621 23.4381C15.8489 27.9869 17.7981 34.6722 20.3013 38.3491C21.5538 40.1496 23.0175 42.1608 24.9327 42.0894C26.8069 42.0113 27.5068 40.8879 29.7691 40.8879C32.0104 40.8879 32.6671 42.0894 34.6212 42.0441C36.6323 42.0113 37.8994 40.2356 39.1078 38.4181C40.0077 37.1352 40.7001 35.7173 41.1595 34.2169C39.9911 33.7201 38.9941 32.8884 38.2926 31.8257C37.5912 30.7629 37.2164 29.5161 37.2151 28.2407Z" fill="white"/>
<path d="M33.5249 17.2518C34.6214 15.9283 35.1616 14.2272 35.0308 12.5098C33.3556 12.6867 31.8081 13.4917 30.6968 14.7643C30.1534 15.3861 29.7372 16.1094 29.4721 16.8929C29.2069 17.6765 29.0979 18.5049 29.1514 19.3308C29.9893 19.3394 30.8183 19.1568 31.5758 18.7967C32.3334 18.4366 32.9998 17.9084 33.5249 17.2518Z" fill="white"/>
<path d="M68.5976 37.5328H62.2019L60.666 42.0925H57.957L64.0149 25.2227H66.8294L72.8873 42.0925H70.1322L68.5976 37.5328ZM62.8643 35.4287H67.9339L65.4348 28.0286H65.3648L62.8643 35.4287Z" fill="white"/>
<path d="M85.9703 35.9434C85.9703 39.7655 83.9356 42.2212 80.8651 42.2212C80.0873 42.2621 79.3138 42.0819 78.6331 41.7014C77.9523 41.3208 77.392 40.7552 77.0161 40.0693H76.958V46.1613H74.447V29.7931H76.8776V31.8388H76.9237C77.3169 31.1562 77.8867 30.5935 78.5726 30.2106C79.2585 29.8277 80.0348 29.6389 80.819 29.6644C83.9237 29.6644 85.9703 32.132 85.9703 35.9434ZM83.3894 35.9434C83.3894 33.4533 82.1094 31.8162 80.1565 31.8162C78.238 31.8162 76.9475 33.4878 76.9475 35.9434C76.9475 38.4216 78.238 40.0813 80.1565 40.0813C82.1094 40.0813 83.3894 38.4561 83.3894 35.9434Z" fill="white"/>
<path d="M99.4347 35.9434C99.4347 39.7655 97.4 42.2212 94.3295 42.2212C93.5517 42.2621 92.7781 42.0819 92.0974 41.7014C91.4167 41.3208 90.8563 40.7552 90.4805 40.0693H90.4223V46.1613H87.9113V29.7931H90.3418V31.8388H90.388C90.7812 31.1562 91.351 30.5935 92.0369 30.2106C92.7228 29.8277 93.4991 29.639 94.2832 29.6644C97.3881 29.6644 99.4347 32.132 99.4347 35.9434ZM96.8537 35.9434C96.8537 33.4533 95.5738 31.8162 93.6209 31.8162C91.7023 31.8162 90.4118 33.4878 90.4118 35.9434C90.4118 38.4216 91.7023 40.0813 93.6209 40.0813C95.5738 40.0813 96.8537 38.4561 96.8537 35.9434Z" fill="white"/>
<path d="M108.333 37.3921C108.52 39.0651 110.136 40.1635 112.345 40.1635C114.461 40.1635 115.984 39.065 115.984 37.5566C115.984 36.2472 115.066 35.4631 112.891 34.9258L110.717 34.3991C107.635 33.6509 106.205 32.2022 106.205 29.8514C106.205 26.9407 108.728 24.9414 112.311 24.9414C115.856 24.9414 118.287 26.9407 118.368 29.8514H115.834C115.682 28.1678 114.298 27.1516 112.275 27.1516C110.252 27.1516 108.868 28.1798 108.868 29.6763C108.868 30.8689 109.752 31.5707 111.915 32.108L113.763 32.5643C117.206 33.3829 118.636 34.7733 118.636 37.2408C118.636 40.3969 116.136 42.3736 112.159 42.3736C108.438 42.3736 105.925 40.4433 105.763 37.392L108.333 37.3921Z" fill="white"/>
<path d="M124.056 26.8824V29.7931H126.382V31.7923H124.056V38.5729C124.056 39.6262 124.521 40.1171 125.544 40.1171C125.82 40.1123 126.096 40.0928 126.37 40.0587V42.046C125.91 42.1324 125.443 42.1715 124.975 42.1628C122.498 42.1628 121.533 41.2275 121.533 38.8421V31.7923H119.754V29.7931H121.533V26.8824H124.056Z" fill="white"/>
<path d="M127.729 35.9434C127.729 32.0736 129.996 29.6418 133.531 29.6418C137.078 29.6418 139.334 32.0735 139.334 35.9434C139.334 39.8239 137.09 42.2451 133.531 42.2451C129.974 42.2451 127.729 39.8239 127.729 35.9434ZM136.776 35.9434C136.776 33.2888 135.566 31.722 133.531 31.722C131.496 31.722 130.288 33.3007 130.288 35.9434C130.288 38.6087 131.496 40.1635 133.531 40.1635C135.566 40.1635 136.776 38.6087 136.776 35.9434Z" fill="white"/>
<path d="M141.405 29.7931H143.799V31.8865H143.858C144.02 31.2327 144.401 30.6549 144.936 30.2502C145.472 29.8455 146.13 29.6386 146.8 29.6644C147.089 29.6633 147.378 29.6949 147.66 29.7586V32.12C147.295 32.0078 146.914 31.9562 146.532 31.9674C146.167 31.9526 145.804 32.0172 145.466 32.157C145.129 32.2968 144.825 32.5083 144.576 32.7772C144.328 33.046 144.14 33.3657 144.026 33.7144C143.912 34.0631 143.874 34.4325 143.916 34.7972V42.0925H141.404L141.405 29.7931Z" fill="white"/>
<path d="M159.238 38.48C158.9 40.7128 156.737 42.245 153.97 42.245C150.412 42.245 148.203 39.8478 148.203 36.0018C148.203 32.1439 150.423 29.6418 153.865 29.6418C157.249 29.6418 159.378 31.9794 159.378 35.7086V36.5736H150.737V36.7262C150.698 37.1788 150.754 37.6348 150.903 38.0639C151.052 38.4929 151.29 38.8853 151.601 39.2148C151.912 39.5443 152.29 39.8034 152.708 39.975C153.127 40.1466 153.577 40.2267 154.028 40.21C154.622 40.2659 155.217 40.1277 155.726 39.816C156.235 39.5043 156.631 39.0357 156.853 38.48L159.238 38.48ZM150.749 34.8091H156.865C156.888 34.4021 156.826 33.9949 156.685 33.6128C156.544 33.2308 156.325 32.8823 156.043 32.5892C155.762 32.2961 155.423 32.0647 155.048 31.9095C154.673 31.7543 154.27 31.6788 153.865 31.6875C153.456 31.6851 153.05 31.7641 152.672 31.9199C152.294 32.0758 151.95 32.3055 151.66 32.5957C151.37 32.8859 151.141 33.2309 150.985 33.6109C150.828 33.9908 150.748 34.398 150.749 34.8091Z" fill="white"/>
<path d="M62.5489 12.5244C63.0753 12.4864 63.6036 12.5664 64.0956 12.7585C64.5875 12.9506 65.031 13.2502 65.3939 13.6355C65.7568 14.0208 66.0301 14.4823 66.1942 14.9866C66.3582 15.491 66.4089 16.0257 66.3425 16.5521C66.3425 19.1418 64.9504 20.6303 62.5489 20.6303H59.6367V12.5244H62.5489ZM60.8889 19.484H62.409C62.7852 19.5066 63.1616 19.4446 63.511 19.3025C63.8603 19.1603 64.1737 18.9417 64.4284 18.6624C64.6831 18.3832 64.8727 18.0503 64.9833 17.6881C65.0939 17.3259 65.1228 16.9435 65.0678 16.5686C65.1188 16.1953 65.087 15.8152 64.9747 15.4557C64.8623 15.0961 64.6723 14.766 64.4182 14.489C64.1641 14.2119 63.8522 13.9948 63.5048 13.8532C63.1575 13.7116 62.7833 13.649 62.409 13.6699H60.8889V19.484Z" fill="white"/>
<path d="M67.757 17.569C67.7188 17.167 67.7645 16.7613 67.8913 16.3782C68.0181 15.995 68.2231 15.6427 68.4933 15.3438C68.7635 15.045 69.0928 14.8062 69.4601 14.6428C69.8274 14.4794 70.2246 14.395 70.6263 14.395C71.028 14.395 71.4252 14.4794 71.7925 14.6428C72.1598 14.8062 72.4891 15.045 72.7593 15.3438C73.0294 15.6427 73.2345 15.995 73.3613 16.3782C73.4881 16.7613 73.5338 17.167 73.4956 17.569C73.5346 17.9714 73.4894 18.3775 73.3629 18.7613C73.2364 19.1452 73.0315 19.4981 72.7613 19.7975C72.4911 20.097 72.1615 20.3363 71.7938 20.5C71.4261 20.6637 71.0284 20.7483 70.6263 20.7483C70.2241 20.7483 69.8265 20.6637 69.4588 20.5C69.0911 20.3363 68.7615 20.097 68.4913 19.7975C68.2211 19.4981 68.0161 19.1452 67.8897 18.7613C67.7632 18.3775 67.718 17.9714 67.757 17.569ZM72.2605 17.569C72.2605 16.243 71.668 15.4675 70.6283 15.4675C69.5845 15.4675 68.9974 16.243 68.9974 17.569C68.9974 18.9056 69.5846 19.675 70.6283 19.675C71.6681 19.675 72.2605 18.9003 72.2605 17.569Z" fill="white"/>
<path d="M81.1237 20.6302H79.8781L78.6206 16.1249H78.5256L77.2734 20.6302H76.0396L74.3625 14.513H75.5804L76.6703 19.1808H76.7601L78.011 14.513H79.1629L80.4138 19.1808H80.5088L81.5935 14.513H82.7942L81.1237 20.6302Z" fill="white"/>
<path d="M84.2048 14.513H85.3607V15.4848H85.4504C85.6026 15.1357 85.8593 14.8432 86.1848 14.6478C86.5103 14.4524 86.8882 14.364 87.266 14.3949C87.5621 14.3725 87.8593 14.4174 88.1358 14.5262C88.4122 14.635 88.6608 14.805 88.8631 15.0235C89.0653 15.242 89.2161 15.5035 89.3042 15.7885C89.3923 16.0735 89.4154 16.3748 89.372 16.6701V20.6301H88.1712V16.9733C88.1712 15.9902 87.7464 15.5014 86.8583 15.5014C86.6573 15.4919 86.4567 15.5263 86.2701 15.6022C86.0836 15.678 85.9156 15.7935 85.7776 15.9408C85.6396 16.088 85.5349 16.2635 85.4707 16.4552C85.4065 16.647 85.3842 16.8504 85.4055 17.0515V20.6302H84.2048L84.2048 14.513Z" fill="white"/>
<path d="M91.2853 12.125H92.486V20.6302H91.2853V12.125Z" fill="white"/>
<path d="M94.1552 17.569C94.117 17.1669 94.1628 16.7613 94.2896 16.3781C94.4164 15.9949 94.6215 15.6426 94.8917 15.3437C95.1619 15.0449 95.4912 14.8061 95.8586 14.6427C96.2259 14.4793 96.6232 14.3949 97.0248 14.3949C97.4265 14.3949 97.8238 14.4793 98.1911 14.6427C98.5585 14.8061 98.8878 15.0449 99.158 15.3437C99.4282 15.6426 99.6333 15.9949 99.7601 16.3781C99.8869 16.7613 99.9327 17.1669 99.8945 17.569C99.9334 17.9714 99.8881 18.3776 99.7617 18.7614C99.6352 19.1452 99.4302 19.4981 99.1599 19.7976C98.8897 20.097 98.5601 20.3362 98.1924 20.5C97.8247 20.6637 97.427 20.7483 97.0248 20.7483C96.6227 20.7483 96.225 20.6637 95.8573 20.5C95.4896 20.3362 95.16 20.097 94.8898 19.7976C94.6195 19.4981 94.4145 19.1452 94.288 18.7614C94.1615 18.3776 94.1163 17.9714 94.1552 17.569ZM98.6587 17.569C98.6587 16.243 98.0663 15.4675 97.0265 15.4675C95.9828 15.4675 95.3956 16.243 95.3956 17.569C95.3956 18.9056 95.9828 19.675 97.0265 19.675C98.0663 19.675 98.6587 18.9003 98.6587 17.569Z" fill="white"/>
<path d="M101.159 18.9003C101.159 17.7991 101.974 17.1643 103.422 17.0741L105.07 16.9786V16.4506C105.07 15.8045 104.645 15.4397 103.824 15.4397C103.154 15.4397 102.689 15.6871 102.556 16.1196H101.393C101.516 15.0689 102.499 14.3949 103.879 14.3949C105.405 14.3949 106.265 15.1584 106.265 16.4506V20.6302H105.109V19.7705H105.014C104.821 20.0789 104.551 20.3303 104.23 20.499C103.908 20.6678 103.549 20.7478 103.187 20.731C102.931 20.7577 102.673 20.7303 102.429 20.6506C102.185 20.5708 101.96 20.4405 101.769 20.268C101.578 20.0955 101.425 19.8847 101.319 19.6491C101.214 19.4135 101.16 19.1584 101.159 18.9003ZM105.07 18.3775V17.8661L103.584 17.9616C102.746 18.018 102.366 18.3046 102.366 18.8439C102.366 19.3944 102.841 19.7148 103.494 19.7148C103.686 19.7343 103.879 19.7149 104.063 19.6577C104.246 19.6005 104.417 19.5067 104.564 19.382C104.711 19.2572 104.831 19.104 104.918 18.9314C105.005 18.7589 105.057 18.5705 105.07 18.3775Z" fill="white"/>
<path d="M107.843 17.569C107.843 15.636 108.832 14.4115 110.369 14.4115C110.749 14.3939 111.126 14.4855 111.457 14.6755C111.787 14.8656 112.057 15.1462 112.235 15.4847H112.324V12.125H113.525V20.6302H112.374V19.6637H112.279C112.088 19.9999 111.809 20.2771 111.472 20.4652C111.135 20.6534 110.754 20.7453 110.369 20.731C108.821 20.7311 107.843 19.5065 107.843 17.569ZM109.084 17.569C109.084 18.8664 109.692 19.6472 110.709 19.6472C111.721 19.6472 112.347 18.8552 112.347 17.5743C112.347 16.2993 111.715 15.4961 110.709 15.4961C109.698 15.4961 109.084 16.2821 109.084 17.569Z" fill="white"/>
<path d="M118.493 17.569C118.455 17.167 118.501 16.7613 118.627 16.3782C118.754 15.995 118.959 15.6427 119.229 15.3438C119.499 15.045 119.829 14.8062 120.196 14.6428C120.563 14.4794 120.961 14.395 121.362 14.395C121.764 14.395 122.161 14.4794 122.529 14.6428C122.896 14.8062 123.225 15.045 123.495 15.3438C123.765 15.6427 123.971 15.995 124.097 16.3782C124.224 16.7613 124.27 17.167 124.232 17.569C124.271 17.9714 124.225 18.3775 124.099 18.7613C123.972 19.1452 123.768 19.4981 123.497 19.7975C123.227 20.097 122.898 20.3363 122.53 20.5C122.162 20.6637 121.764 20.7483 121.362 20.7483C120.96 20.7483 120.562 20.6637 120.195 20.5C119.827 20.3363 119.498 20.097 119.227 19.7975C118.957 19.4981 118.752 19.1452 118.626 18.7613C118.499 18.3775 118.454 17.9714 118.493 17.569ZM122.997 17.569C122.997 16.243 122.404 15.4675 121.364 15.4675C120.321 15.4675 119.733 16.243 119.733 17.569C119.733 18.9056 120.321 19.675 121.364 19.675C122.404 19.675 122.997 18.9003 122.997 17.569Z" fill="white"/>
<path d="M125.843 14.513H126.999V15.4848H127.088C127.241 15.1357 127.497 14.8432 127.823 14.6478C128.148 14.4524 128.526 14.364 128.904 14.3949C129.2 14.3725 129.497 14.4174 129.774 14.5262C130.05 14.635 130.299 14.805 130.501 15.0235C130.703 15.242 130.854 15.5035 130.942 15.7885C131.03 16.0735 131.053 16.3748 131.01 16.6701V20.6301H129.809V16.9733C129.809 15.9902 129.384 15.5014 128.496 15.5014C128.295 15.4919 128.095 15.5263 127.908 15.6022C127.722 15.678 127.554 15.7935 127.416 15.9408C127.278 16.088 127.173 16.2635 127.109 16.4552C127.044 16.647 127.022 16.8504 127.043 17.0515V20.6302H125.843V14.513Z" fill="white"/>
<path d="M137.795 12.99V14.5409H139.113V15.5577H137.795V18.7032C137.795 19.344 138.058 19.6246 138.655 19.6246C138.808 19.6241 138.961 19.6148 139.113 19.5967V20.6023C138.897 20.6411 138.679 20.6618 138.46 20.664C137.125 20.664 136.593 20.1917 136.593 19.0123V15.5577H135.627V14.5408H136.593V12.99H137.795Z" fill="white"/>
<path d="M140.753 12.125H141.943V15.496H142.038C142.198 15.1438 142.462 14.8495 142.794 14.6534C143.126 14.4573 143.51 14.3689 143.894 14.4002C144.188 14.3841 144.483 14.4335 144.756 14.545C145.029 14.6565 145.275 14.8272 145.475 15.045C145.675 15.2628 145.825 15.5224 145.914 15.8051C146.003 16.0879 146.028 16.3868 145.989 16.6807V20.6302H144.787V16.9786C144.787 16.0015 144.334 15.5066 143.486 15.5066C143.28 15.4896 143.072 15.5181 142.878 15.5902C142.684 15.6623 142.507 15.7762 142.361 15.9239C142.215 16.0716 142.103 16.2496 142.033 16.4454C141.963 16.6412 141.936 16.8501 141.954 17.0575V20.6302H140.753L140.753 12.125Z" fill="white"/>
<path d="M152.99 18.9785C152.827 19.5376 152.474 20.0212 151.992 20.3447C151.51 20.6682 150.93 20.8111 150.354 20.7483C149.953 20.7589 149.555 20.6817 149.187 20.5221C148.818 20.3624 148.489 20.1241 148.222 19.8237C147.954 19.5233 147.755 19.1679 147.638 18.7824C147.521 18.3968 147.489 17.9902 147.543 17.5908C147.49 17.1902 147.523 16.7828 147.64 16.3961C147.757 16.0093 147.955 15.6524 148.221 15.3493C148.487 15.0463 148.814 14.8042 149.182 14.6396C149.549 14.4749 149.947 14.3915 150.349 14.3949C152.042 14.3949 153.063 15.5578 153.063 17.4787V17.9H148.767V17.9676C148.748 18.1921 148.776 18.4181 148.849 18.631C148.922 18.844 149.039 19.0392 149.191 19.2042C149.344 19.3692 149.529 19.5003 149.735 19.5891C149.941 19.678 150.163 19.7226 150.387 19.7201C150.674 19.7547 150.965 19.7027 151.223 19.5707C151.481 19.4386 151.694 19.2325 151.835 18.9785L152.99 18.9785ZM148.767 17.0071H151.84C151.855 16.8018 151.827 16.5956 151.758 16.4017C151.689 16.2078 151.581 16.0306 151.44 15.8813C151.299 15.7321 151.128 15.6142 150.939 15.5351C150.75 15.4561 150.547 15.4177 150.342 15.4224C150.134 15.4198 149.928 15.459 149.736 15.5377C149.544 15.6164 149.369 15.7331 149.222 15.8808C149.075 16.0285 148.959 16.2042 148.881 16.3976C148.803 16.5911 148.764 16.7983 148.767 17.0071Z" fill="white"/>
</g>
<defs>
<clipPath id="clip0_3430_5227">
<rect width="182.41" height="54.3398" fill="white" transform="translate(0.590332 0.660156)"/>
</clipPath>
</defs>
</svg>
