<svg width="40" height="42" viewBox="0 0 40 42" fill="none" xmlns="http://www.w3.org/2000/svg">
<g clip-path="url(#clip0_3419_5332)">
<path d="M39.5 34.4036C39.5 37.3958 37.0755 39.8203 34.0833 39.8203H5.91667C2.92558 39.8203 0.5 37.3958 0.5 34.4036V6.23698C0.5 3.24481 2.92558 0.820312 5.91667 0.820312H34.0833C37.0755 0.820312 39.5 3.24481 39.5 6.23698V34.4036Z" fill="#FFD446"/>
<path d="M32.545 20.5632H26.0339V15.3543C26.0339 13.9167 27.2007 14.0521 28.6383 14.0521H31.2428V7.54102H26.0339C21.7183 7.54102 18.2206 11.0388 18.2206 15.3543V20.5632H13.0117V27.0743H18.2206V41.3987H26.0339V27.0743H29.9405L32.545 20.5632Z" fill="#151304"/>
</g>
<defs>
<clipPath id="clip0_3419_5332">
<rect width="40" height="41" fill="white" transform="translate(0 0.660156)"/>
</clipPath>
</defs>
</svg>
