<svg width="184" height="55" viewBox="0 0 184 55" fill="none" xmlns="http://www.w3.org/2000/svg">
<g clip-path="url(#clip0_3430_5214)">
<path fill-rule="evenodd" clip-rule="evenodd" d="M15.4385 0.660159H168.788C169.336 0.660159 169.893 0.659982 170.441 0.662699C170.82 0.664861 171.207 0.670563 171.589 0.676191C171.675 0.677457 171.761 0.67872 171.846 0.679938C172.867 0.690056 173.887 0.770336 174.895 0.920066C175.906 1.07347 176.887 1.36055 177.803 1.77184C179.637 2.61099 181.129 3.94119 182.07 5.57536C182.529 6.38962 182.848 7.26147 183.013 8.16101C183.183 9.06006 183.278 9.96915 183.296 10.8807C183.302 11.2973 183.302 11.7152 183.302 12.1318C183.314 12.6239 183.314 13.1175 183.314 13.615V42.0465C183.314 42.548 183.314 43.0388 183.302 43.5324C183.302 43.9542 183.302 44.3628 183.296 44.7848C183.278 45.6963 183.183 46.6054 183.013 47.5044C182.848 48.4044 182.53 49.2768 182.07 50.0913C181.602 50.902 180.994 51.6421 180.268 52.2844C179.548 52.9322 178.716 53.4728 177.803 53.8856C176.887 54.298 175.906 54.5868 174.895 54.7426C173.887 54.8911 172.867 54.9714 171.846 54.9827C171.381 54.992 170.905 54.9973 170.441 54.9973C169.893 55 169.336 55 168.788 55H15.4385C14.8795 55 14.3272 55 13.7697 54.9973C13.303 54.9973 12.8401 54.992 12.3689 54.9827C11.3454 54.9707 10.3243 54.8904 9.31428 54.7426C8.3057 54.5879 7.32892 54.299 6.41668 53.8856C5.50334 53.473 4.67027 52.9324 3.94929 52.2844C3.22164 51.6446 2.61511 50.904 2.15327 50.0913C1.6895 49.2774 1.36821 48.4049 1.20055 47.5044C1.03084 46.6055 0.939511 45.6962 0.927391 44.7848C0.917726 44.4965 0.913967 44.2145 0.910179 43.9302C0.908422 43.7983 0.906658 43.666 0.904297 43.5324V12.1318C0.906686 11.9982 0.908463 11.8646 0.910241 11.7308C0.914009 11.4474 0.917779 11.1638 0.927391 10.8808C0.939507 9.96928 1.03083 9.05999 1.20055 8.16107C1.36868 7.26101 1.68995 6.38908 2.15327 5.57541C2.61532 4.76012 3.22177 4.01651 3.94929 3.37317C4.67301 2.72802 5.50554 2.18775 6.41668 1.77197C7.32893 1.35967 8.30581 1.07251 9.31428 0.920188C10.3242 0.771115 11.3453 0.690863 12.3689 0.680128C12.4667 0.678749 12.5642 0.677316 12.6614 0.675887C13.0325 0.670431 13.3999 0.665029 13.7697 0.662876C14.3272 0.660159 14.8795 0.660159 15.4385 0.660159ZM12.2651 53.8009C12.7267 53.8101 13.1807 53.8154 13.6459 53.8154L168.925 53.8181L170.58 53.8154C171.035 53.8154 171.503 53.8101 171.95 53.8009C172.907 53.7905 173.861 53.7164 174.804 53.5792C175.691 53.4455 176.549 53.1936 177.351 52.8322C178.143 52.4742 178.865 52.0051 179.488 51.4428C180.113 50.8917 180.637 50.2562 181.039 49.56C181.443 48.8457 181.721 48.0803 181.864 47.2908C182.02 46.4581 182.107 45.6164 182.125 44.7723C182.131 44.3557 182.131 43.9509 182.131 43.5091C182.143 43.0234 182.143 42.5417 182.143 42.0481V13.6106C182.143 13.1217 182.143 12.6367 182.131 12.1271C182.131 11.7158 182.131 11.3024 182.126 10.9176C182.108 10.0582 182.019 9.2012 181.861 8.35332C181.717 7.57408 181.441 6.8187 181.044 6.1128C180.23 4.70115 178.941 3.55139 177.356 2.82465C176.552 2.46522 175.692 2.21433 174.804 2.08024C173.866 1.94322 172.918 1.86937 171.967 1.85932L170.572 1.84206H13.6467L12.2689 1.85865C11.3093 1.86923 10.352 1.94374 9.40499 2.08157C8.5266 2.214 7.67557 2.46315 6.8804 2.82067C6.08936 3.18128 5.3668 3.65008 4.73905 4.20998C4.1106 4.76461 3.58713 5.40606 3.18895 6.10948C2.78468 6.82029 2.50483 7.58189 2.3591 8.36791C2.20248 9.20889 2.11798 10.0593 2.10633 10.9116C2.0974 11.1877 2.0839 12.1271 2.0839 12.1271V43.5157C2.0839 43.5157 2.09658 44.4698 2.10626 44.7564C2.11842 45.6101 2.20341 46.4618 2.3605 47.3041C2.50596 48.088 2.7856 48.8474 3.18965 49.5559C3.5893 50.2598 4.11569 50.9008 4.74795 51.4534C5.37119 52.0127 6.09145 52.4791 6.88115 52.8348C7.67814 53.1934 8.53079 53.4444 9.41096 53.5792C10.3549 53.7157 11.3089 53.7898 12.2651 53.8009Z" fill="#A6A6A6" fill-opacity="0.4"/>
<path d="M13.6446 53.8151C13.1793 53.8151 12.7253 53.8098 12.2637 53.8006C11.3075 53.7895 10.3535 53.7154 9.40957 53.579C8.52941 53.4441 7.67676 53.1932 6.87976 52.8345C6.09007 52.4788 5.36981 52.0124 4.74657 51.4532C4.11431 50.9005 3.58792 50.2595 3.18827 49.5556C2.78421 48.8472 2.50458 48.0877 2.35912 47.3039C2.20203 46.4616 2.11704 45.6099 2.10487 44.7561C2.09519 44.4696 2.08252 43.5154 2.08252 43.5154V12.1269C2.08252 12.1269 2.09602 11.1874 2.10495 10.9114C2.1166 10.059 2.20109 9.20863 2.35771 8.36765C2.50345 7.58162 2.78329 6.82003 3.18757 6.10922C3.58575 5.4058 4.10921 4.76434 4.73767 4.20972C5.36541 3.64982 6.08798 3.18102 6.87901 2.8204C7.67418 2.46289 8.52522 2.21374 9.4036 2.08131C10.3506 1.94348 11.3079 1.86897 12.2675 1.85839L13.6453 1.8418H170.571L171.965 1.85905C172.916 1.86911 173.865 1.94296 174.803 2.07998C175.69 2.21407 176.55 2.46495 177.354 2.82439C178.939 3.55112 180.229 4.70089 181.042 6.11254C181.44 6.81843 181.715 7.57382 181.859 8.35306C182.018 9.20094 182.107 10.058 182.125 10.9174C182.129 11.3022 182.129 11.7155 182.129 12.1269C182.141 12.6364 182.141 13.1214 182.141 13.6104V42.0478C182.141 42.5415 182.141 43.0232 182.129 43.5088C182.129 43.9507 182.129 44.3554 182.123 44.772C182.105 45.6161 182.018 46.4578 181.862 47.2906C181.72 48.0801 181.442 48.8454 181.038 49.5597C180.635 50.256 180.112 50.8914 179.487 51.4426C178.863 52.0048 178.142 52.4739 177.35 52.8319C176.548 53.1934 175.689 53.4452 174.803 53.579C173.859 53.7162 172.905 53.7902 171.949 53.8006C171.502 53.8098 171.033 53.8151 170.579 53.8151L168.923 53.8179L13.6446 53.8151Z" fill="black"/>
<path d="M29.5045 26.8204L15.0293 42.1842C15.0298 42.1874 15.0309 42.19 15.0315 42.1932C15.4754 43.8614 16.9991 45.0898 18.8076 45.0898C19.5305 45.0898 20.2092 44.8944 20.7912 44.5513L20.8375 44.5242L37.1312 35.1221L29.5045 26.8204Z" fill="#EB3131"/>
<path d="M44.1458 24.2029L44.1319 24.1933L37.0975 20.1154L29.1724 27.1675L37.1251 35.1191L44.1224 31.0817C45.3492 30.4195 46.1819 29.1262 46.1819 27.6348C46.1819 26.1542 45.3603 24.8673 44.1458 24.2029Z" fill="#F6B60B"/>
<path d="M15.0248 13.0238C14.9378 13.3447 14.8921 13.6808 14.8921 14.0298V41.1783C14.8921 41.5266 14.9373 41.8639 15.0254 42.1836L29.9988 27.2129L15.0248 13.0238Z" fill="#5778C5"/>
<path d="M29.6118 27.6035L37.1042 20.1133L20.8289 10.6773C20.2373 10.323 19.5469 10.1185 18.8081 10.1185C16.9997 10.1185 15.4739 11.3491 15.0298 13.0194C15.0293 13.021 15.0293 13.0221 15.0293 13.0236L29.6118 27.6035Z" fill="#3BAD49"/>
<path d="M67.0517 13.9518C67.0763 14.4503 66.9997 14.9486 66.8266 15.4163C66.6535 15.8841 66.3875 16.3116 66.0448 16.6727C65.6608 17.0731 65.197 17.3875 64.6838 17.5953C64.1706 17.8032 63.6196 17.8997 63.0667 17.8786C62.5103 17.8836 61.9585 17.7768 61.4438 17.5643C60.9291 17.3519 60.4618 17.0381 60.0694 16.6415C59.677 16.2448 59.3674 15.7733 59.1589 15.2547C58.9503 14.7361 58.847 14.1807 58.8549 13.6214C58.847 13.062 58.9504 12.5067 59.159 11.988C59.3676 11.4694 59.6771 10.9979 60.0695 10.6012C60.4619 10.2045 60.9291 9.89068 61.4438 9.67813C61.9585 9.46557 62.5103 9.35858 63.0667 9.36344C63.6388 9.3617 64.2051 9.47799 64.7307 9.7051C65.2188 9.90404 65.6533 10.2161 65.9988 10.6158L65.2861 11.3329C65.0146 11.0115 64.6732 10.7572 64.2884 10.5895C63.9036 10.4218 63.4856 10.3453 63.0667 10.3657C62.645 10.3635 62.2272 10.4469 61.8384 10.6109C61.4495 10.7749 61.0976 11.0161 60.8036 11.3201C60.5097 11.6241 60.2797 11.9846 60.1276 12.38C59.9756 12.7754 59.9044 13.1976 59.9184 13.6214C59.9084 14.2561 60.086 14.8795 60.4288 15.4125C60.7716 15.9456 61.2641 16.3643 61.8439 16.6155C62.4237 16.8668 63.0646 16.9393 63.6854 16.8238C64.3063 16.7083 64.879 16.4101 65.331 15.967C65.747 15.5163 65.9882 14.9303 66.0105 14.3158H63.0667V13.3368H66.995C67.0321 13.5397 67.0511 13.7455 67.0517 13.9518Z" fill="white"/>
<path d="M73.2797 10.5475H69.5878V13.1318H72.917V14.111H69.5878V16.6952H73.2797V17.6969H68.5467V9.54589H73.2797V10.5475Z" fill="white"/>
<path d="M77.6725 17.6969H76.63V10.5475H74.3657V9.54589H79.9368V10.5475H77.6725V17.6969Z" fill="white"/>
<path d="M83.9679 17.6969V9.54589H85.009V17.6969H83.9679Z" fill="white"/>
<path d="M89.6299 17.6969H88.5874V10.5475H86.3233V9.54589H91.8942V10.5475H89.6299V17.6969Z" fill="white"/>
<path d="M102.44 16.6435C101.651 17.4345 100.583 17.8786 99.4683 17.8786C98.354 17.8786 97.2852 17.4345 96.4961 16.6435C96.1057 16.246 95.7988 15.7736 95.5937 15.2544C95.3885 14.7352 95.2893 14.1799 95.3019 13.6214C95.2893 13.0629 95.3885 12.5075 95.5937 11.9884C95.7988 11.4692 96.1057 10.9968 96.4961 10.5993C96.8861 10.207 97.3492 9.89597 97.859 9.68391C98.3687 9.47185 98.9151 9.36295 99.4667 9.36344C100.018 9.36393 100.565 9.47381 101.074 9.68678C101.583 9.89974 102.046 10.2116 102.435 10.6046C102.826 11.001 103.133 11.4724 103.339 11.9906C103.545 12.5088 103.646 13.0634 103.635 13.6214C103.647 14.1798 103.548 14.7351 103.342 15.2542C103.137 15.7733 102.831 16.2457 102.44 16.6435ZM97.2653 15.961C97.8497 16.5476 98.6418 16.877 99.4676 16.877C100.293 16.877 101.085 16.5476 101.67 15.961C101.97 15.6525 102.204 15.2861 102.359 14.884C102.514 14.4819 102.586 14.0523 102.571 13.6214C102.586 13.1904 102.514 12.7609 102.359 12.3588C102.204 11.9566 101.97 11.5903 101.67 11.2818C101.085 10.6952 100.293 10.3657 99.4676 10.3657C98.6418 10.3657 97.8497 10.6952 97.2653 11.2818C96.966 11.5905 96.732 11.957 96.5774 12.359C96.4227 12.7611 96.3506 13.1905 96.3654 13.6214C96.3506 14.0522 96.4227 14.4816 96.5774 14.8837C96.732 15.2858 96.966 15.6522 97.2653 15.961Z" fill="white"/>
<path d="M105.097 17.6969V9.54589H106.365L110.305 15.8867H110.35L110.305 14.3158V9.54589H111.347V17.6969H110.26L106.138 11.0489H106.093L106.138 12.6198V17.6969H105.097Z" fill="white"/>
<path d="M67.0517 13.9518C67.0763 14.4503 66.9997 14.9486 66.8266 15.4163C66.6535 15.8841 66.3875 16.3116 66.0448 16.6727C65.6608 17.0731 65.197 17.3875 64.6838 17.5953C64.1706 17.8032 63.6196 17.8997 63.0667 17.8786C62.5103 17.8836 61.9585 17.7768 61.4438 17.5643C60.9291 17.3519 60.4618 17.0381 60.0694 16.6415C59.677 16.2448 59.3674 15.7733 59.1589 15.2547C58.9503 14.7361 58.847 14.1807 58.8549 13.6214C58.847 13.062 58.9504 12.5067 59.159 11.988C59.3676 11.4694 59.6771 10.9979 60.0695 10.6012C60.4619 10.2045 60.9291 9.89068 61.4438 9.67813C61.9585 9.46557 62.5103 9.35858 63.0667 9.36344C63.6388 9.3617 64.2051 9.47799 64.7307 9.7051C65.2188 9.90404 65.6533 10.2161 65.9988 10.6158L65.2861 11.3329C65.0146 11.0115 64.6732 10.7572 64.2884 10.5895C63.9036 10.4218 63.4856 10.3453 63.0667 10.3657C62.645 10.3635 62.2272 10.4469 61.8384 10.6109C61.4495 10.7749 61.0976 11.0161 60.8036 11.3201C60.5097 11.6241 60.2797 11.9846 60.1276 12.38C59.9756 12.7754 59.9044 13.1976 59.9184 13.6214C59.9084 14.2561 60.086 14.8795 60.4288 15.4125C60.7716 15.9456 61.2641 16.3643 61.8439 16.6155C62.4237 16.8668 63.0646 16.9393 63.6854 16.8238C64.3063 16.7083 64.879 16.4101 65.331 15.967C65.747 15.5163 65.9882 14.9303 66.0105 14.3158H63.0667V13.3368H66.995C67.0321 13.5397 67.0511 13.7455 67.0517 13.9518Z" stroke="white" stroke-width="0.271699" stroke-miterlimit="10"/>
<path d="M73.2797 10.5475H69.5878V13.1318H72.917V14.111H69.5878V16.6952H73.2797V17.6969H68.5467V9.54589H73.2797V10.5475Z" stroke="white" stroke-width="0.271699" stroke-miterlimit="10"/>
<path d="M77.6725 17.6969H76.63V10.5475H74.3657V9.54589H79.9368V10.5475H77.6725V17.6969Z" stroke="white" stroke-width="0.271699" stroke-miterlimit="10"/>
<path d="M83.9679 17.6969V9.54589H85.009V17.6969H83.9679Z" stroke="white" stroke-width="0.271699" stroke-miterlimit="10"/>
<path d="M89.6299 17.6969H88.5874V10.5475H86.3233V9.54589H91.8942V10.5475H89.6299V17.6969Z" stroke="white" stroke-width="0.271699" stroke-miterlimit="10"/>
<path d="M102.44 16.6435C101.651 17.4345 100.583 17.8786 99.4683 17.8786C98.354 17.8786 97.2852 17.4345 96.4961 16.6435C96.1057 16.246 95.7988 15.7736 95.5937 15.2544C95.3885 14.7352 95.2893 14.1799 95.3019 13.6214C95.2893 13.0629 95.3885 12.5075 95.5937 11.9884C95.7988 11.4692 96.1057 10.9968 96.4961 10.5993C96.8861 10.207 97.3492 9.89597 97.859 9.68391C98.3687 9.47185 98.9151 9.36295 99.4667 9.36344C100.018 9.36393 100.565 9.47381 101.074 9.68678C101.583 9.89974 102.046 10.2116 102.435 10.6046C102.826 11.001 103.133 11.4724 103.339 11.9906C103.545 12.5088 103.646 13.0634 103.635 13.6214C103.647 14.1798 103.548 14.7351 103.342 15.2542C103.137 15.7733 102.831 16.2457 102.44 16.6435ZM97.2653 15.961C97.8497 16.5476 98.6418 16.877 99.4676 16.877C100.293 16.877 101.085 16.5476 101.67 15.961C101.97 15.6525 102.204 15.2861 102.359 14.884C102.514 14.4819 102.586 14.0523 102.571 13.6214C102.586 13.1904 102.514 12.7609 102.359 12.3588C102.204 11.9566 101.97 11.5903 101.67 11.2818C101.085 10.6952 100.293 10.3657 99.4676 10.3657C98.6418 10.3657 97.8497 10.6952 97.2653 11.2818C96.966 11.5905 96.732 11.957 96.5774 12.359C96.4227 12.7611 96.3506 13.1905 96.3654 13.6214C96.3506 14.0522 96.4227 14.4816 96.5774 14.8837C96.732 15.2858 96.966 15.6522 97.2653 15.961Z" stroke="white" stroke-width="0.271699" stroke-miterlimit="10"/>
<path d="M105.097 17.6969V9.54589H106.365L110.305 15.8867H110.35L110.305 14.3158V9.54589H111.347V17.6969H110.26L106.138 11.0489H106.093L106.138 12.6198V17.6969H105.097Z" stroke="white" stroke-width="0.271699" stroke-miterlimit="10"/>
<path d="M95.045 29.5871C93.9093 29.5915 92.8004 29.934 91.8582 30.5715C90.916 31.209 90.1828 32.1129 89.7512 33.1691C89.3196 34.2253 89.2089 35.3863 89.4331 36.5057C89.6573 37.6251 90.2063 38.6525 91.0109 39.4584C91.8155 40.2643 92.8395 40.8124 93.9537 41.0335C95.0679 41.2547 96.2223 41.139 97.2711 40.701C98.3199 40.263 99.2162 39.5225 99.8467 38.5727C100.477 37.623 100.814 36.5068 100.814 35.365C100.825 34.6012 100.683 33.8431 100.397 33.1356C100.111 32.428 99.6857 31.7856 99.1475 31.2466C98.6093 30.7075 97.9688 30.2828 97.264 29.9977C96.5592 29.7126 95.8046 29.573 95.045 29.5871ZM95.045 38.8668C94.3456 38.9169 93.6474 38.7542 93.0413 38.3997C92.4351 38.0453 91.9492 37.5156 91.6467 36.8797C91.3441 36.2437 91.2391 35.5308 91.3451 34.834C91.4512 34.1371 91.7635 33.4885 92.2413 32.9726C92.7192 32.4567 93.3405 32.0973 94.0243 31.9414C94.7081 31.7854 95.4228 31.8401 96.0752 32.0982C96.7277 32.3564 97.2878 32.806 97.6825 33.3887C98.0773 33.9713 98.2884 34.66 98.2884 35.365C98.3096 35.8103 98.242 36.2555 98.0895 36.6742C97.9371 37.0929 97.7028 37.4767 97.4006 37.803C97.0984 38.1293 96.7343 38.3915 96.3297 38.5742C95.9252 38.7569 95.4884 38.8564 95.045 38.8668ZM82.4609 29.5871C81.3252 29.5914 80.2163 29.934 79.274 30.5715C78.3318 31.209 77.5986 32.1129 77.167 33.169C76.7353 34.2252 76.6246 35.3862 76.8488 36.5056C77.073 37.625 77.622 38.6525 78.4266 39.4584C79.2312 40.2642 80.2552 40.8124 81.3694 41.0335C82.4836 41.2547 83.638 41.139 84.6868 40.701C85.7356 40.2631 86.6319 39.5225 87.2624 38.5728C87.8929 37.623 88.2294 36.5068 88.2294 35.365C88.2405 34.6013 88.0988 33.8431 87.8126 33.1356C87.5264 32.4281 87.1015 31.7857 86.5633 31.2466C86.0251 30.7076 85.3846 30.2829 84.6798 29.9978C83.9751 29.7127 83.2204 29.573 82.4609 29.5871ZM82.4609 38.8668C81.7615 38.9169 81.0633 38.7542 80.4571 38.3997C79.851 38.0453 79.3651 37.5156 79.0625 36.8797C78.76 36.2437 78.655 35.5308 78.761 34.834C78.8671 34.1371 79.1794 33.4885 79.6572 32.9726C80.1351 32.4567 80.7563 32.0973 81.4402 31.9414C82.124 31.7854 82.8386 31.8401 83.4911 32.0982C84.1436 32.3564 84.7037 32.806 85.0984 33.3887C85.4931 33.9713 85.7043 34.66 85.7043 35.365C85.7255 35.8103 85.6579 36.2555 85.5055 36.6742C85.353 37.0929 85.1187 37.4767 84.8165 37.803C84.5143 38.1293 84.1502 38.3915 83.7456 38.5742C83.3411 38.7569 82.9043 38.8564 82.4609 38.8668ZM67.4914 31.36V33.8111H73.3254C73.2412 34.9608 72.7733 36.0482 71.9975 36.8971C71.4128 37.4962 70.7098 37.9655 69.9336 38.2746C69.1575 38.5837 68.3255 38.7258 67.4914 38.6916C65.7862 38.6684 64.1586 37.9711 62.9609 36.7505C61.7632 35.5299 61.0917 33.8842 61.0917 32.1696C61.0917 30.455 61.7632 28.8094 62.9609 27.5888C64.1586 26.3682 65.7862 25.6708 67.4914 25.6476C69.1293 25.6261 70.7095 26.2553 71.8887 27.3985L73.6083 25.6695C72.8038 24.8687 71.8483 24.2374 70.7979 23.8127C69.7475 23.3881 68.6234 23.1785 67.4914 23.1964C66.3084 23.179 65.1338 23.3984 64.0359 23.8415C62.938 24.2847 61.9386 24.9429 61.096 25.7779C60.2533 26.6128 59.5842 27.6079 59.1275 28.7052C58.6707 29.8025 58.4355 30.9801 58.4355 32.1696C58.4355 33.3591 58.6707 34.5368 59.1275 35.6341C59.5842 36.7314 60.2533 37.7264 61.096 38.5614C61.9386 39.3964 62.938 40.0546 64.0359 40.4977C65.1338 40.9409 66.3084 41.1602 67.4914 41.1429C68.6473 41.1911 69.8001 40.9916 70.8735 40.5577C71.9469 40.1238 72.9162 39.4653 73.7171 38.626C75.1391 37.0655 75.8971 35.0073 75.8287 32.892C75.8343 32.3783 75.7905 31.8652 75.698 31.36H67.4914ZM128.711 33.2639C128.366 32.2174 127.708 31.3031 126.828 30.6453C125.948 29.9875 124.888 29.618 123.792 29.5871C123.053 29.5917 122.323 29.7468 121.646 30.043C120.969 30.3393 120.359 30.7704 119.852 31.3105C119.346 31.8506 118.953 32.4883 118.699 33.1852C118.444 33.8821 118.333 34.6236 118.371 35.365C118.355 36.1246 118.491 36.8798 118.771 37.5855C119.051 38.2912 119.47 38.9329 120.002 39.4722C120.534 40.0115 121.169 40.4374 121.869 40.7245C122.569 41.0115 123.319 41.1539 124.075 41.1429C125.021 41.1482 125.955 40.917 126.79 40.47C127.626 40.0231 128.339 39.3744 128.864 38.5823L126.904 37.2692C126.611 37.7592 126.196 38.1641 125.7 38.4442C125.204 38.7243 124.644 38.8699 124.075 38.8668C123.489 38.8893 122.91 38.7344 122.414 38.4222C121.917 38.11 121.525 37.6549 121.288 37.1159L128.973 33.9206L128.711 33.2639ZM120.875 35.19C120.848 34.7695 120.904 34.3477 121.041 33.9495C121.178 33.5512 121.393 33.1844 121.673 32.8706C121.952 32.5567 122.292 32.3021 122.67 32.1216C123.049 31.9412 123.46 31.8385 123.879 31.8196C124.315 31.7907 124.749 31.8916 125.129 32.1095C125.508 32.3275 125.815 32.6529 126.012 33.0452L120.875 35.19ZM114.627 40.7927H117.152V23.8093H114.627V40.7927ZM110.491 30.8784H110.404C110.02 30.459 109.552 30.1269 109.03 29.9042C108.508 29.6816 107.945 29.5734 107.378 29.5871C105.897 29.6505 104.496 30.287 103.47 31.3636C102.444 32.4403 101.871 33.8738 101.871 35.365C101.871 36.8562 102.444 38.2898 103.47 39.3664C104.496 40.4431 105.897 41.0795 107.378 41.1429C107.947 41.1581 108.513 41.0485 109.035 40.8218C109.558 40.595 110.025 40.2565 110.404 39.8298H110.491V40.6615C110.491 42.872 109.316 44.0538 107.422 44.0538C106.791 44.0386 106.178 43.8348 105.663 43.4684C105.147 43.102 104.752 42.5896 104.527 41.9965L102.328 42.9158C102.743 43.9301 103.449 44.797 104.356 45.4052C105.264 46.0135 106.331 46.3355 107.422 46.3299C110.382 46.3299 112.886 44.5791 112.886 40.3112V29.9372H110.491V30.8784ZM107.596 38.8668C106.723 38.7923 105.91 38.3912 105.318 37.7427C104.725 37.0942 104.396 36.2457 104.396 35.365C104.396 34.4844 104.725 33.6358 105.318 32.9873C105.91 32.3389 106.723 31.9377 107.596 31.8633C108.03 31.8846 108.456 31.9936 108.847 32.1838C109.239 32.374 109.588 32.6414 109.874 32.9702C110.161 33.299 110.379 33.6825 110.514 34.0977C110.65 34.5128 110.702 34.9513 110.665 35.3868C110.699 35.8197 110.646 36.255 110.509 36.6667C110.372 37.0784 110.153 37.458 109.867 37.7829C109.58 38.1078 109.231 38.3712 108.841 38.5574C108.451 38.7437 108.028 38.8489 107.596 38.8668ZM140.539 23.8096H134.498V40.7927H137.019V34.3583H140.539C141.252 34.3976 141.966 34.2903 142.637 34.043C143.307 33.7957 143.92 33.4136 144.439 32.92C144.958 32.4263 145.371 31.8316 145.653 31.172C145.935 30.5125 146.081 29.802 146.081 29.084C146.081 28.3659 145.935 27.6554 145.653 26.9959C145.371 26.3363 144.958 25.7416 144.439 25.2479C143.92 24.7543 143.307 24.3722 142.637 24.1249C141.966 23.8776 141.252 23.7703 140.539 23.8096ZM140.604 31.9948H137.019V26.1732H140.604C140.99 26.1652 141.373 26.2346 141.731 26.3772C142.089 26.5199 142.415 26.733 142.691 27.0041C142.966 27.2752 143.185 27.5988 143.334 27.956C143.483 28.3131 143.56 28.6966 143.56 29.084C143.56 29.4714 143.483 29.8549 143.334 30.2121C143.185 30.5692 142.966 30.8928 142.691 31.1639C142.415 31.435 142.089 31.6481 141.731 31.7908C141.373 31.9335 140.99 32.0028 140.604 31.9948ZM156.186 29.5559C155.266 29.5019 154.35 29.7191 153.551 30.181C152.752 30.6429 152.104 31.3293 151.687 32.1559L153.926 33.0955C154.148 32.6852 154.484 32.3488 154.893 32.1276C155.302 31.9064 155.766 31.8099 156.229 31.85C156.869 31.7872 157.507 31.9819 158.004 32.3915C158.501 32.8011 158.816 33.392 158.881 34.0349V34.2097C158.071 33.7772 157.168 33.5521 156.251 33.5542C153.839 33.5542 151.383 34.887 151.383 37.3778C151.407 37.9028 151.535 38.4176 151.76 38.8918C151.985 39.3661 152.303 39.79 152.694 40.1384C153.085 40.4869 153.542 40.7528 154.037 40.9204C154.532 41.088 155.056 41.1538 155.577 41.114C156.212 41.1515 156.845 41.0173 157.411 40.7253C157.977 40.4332 158.454 39.9941 158.794 39.4535H158.881V40.7644H161.314V34.2534C161.314 31.2383 159.076 29.5559 156.186 29.5559ZM155.882 38.8635C155.056 38.8635 153.904 38.4485 153.904 37.4215C153.904 36.1106 155.338 35.608 156.577 35.608C157.382 35.5865 158.177 35.7827 158.881 36.1761C158.788 36.9127 158.433 37.5908 157.882 38.0848C157.331 38.5788 156.62 38.8554 155.882 38.8635ZM170.181 29.9273L167.291 37.2904H167.204L164.205 29.9273H161.488L165.987 40.2182L163.422 45.9426H166.052L172.984 29.9273H170.181ZM147.472 40.7927H149.992V23.8096H147.472V40.7927Z" fill="white"/>
</g>
<defs>
<clipPath id="clip0_3430_5214">
<rect width="182.41" height="54.3398" fill="white" transform="translate(0.904297 0.660156)"/>
</clipPath>
</defs>
</svg>
