<svg width="40" height="41" viewBox="0 0 40 41" fill="none" xmlns="http://www.w3.org/2000/svg">
<g clip-path="url(#clip0_3419_5321)">
<g clip-path="url(#clip1_3419_5321)">
<path d="M27.5091 9.7793H11.7745C10.1477 9.7793 8.82422 11.1028 8.82422 12.7295V28.4642C8.82422 30.0909 10.1477 31.4144 11.7745 31.4144H27.5091C29.1358 31.4144 30.4593 30.0909 30.4593 28.4642V12.7295C30.4593 11.1028 29.1358 9.7793 27.5091 9.7793ZM19.6418 27.4808C15.8464 27.4808 12.7579 24.3922 12.7579 20.5969C12.7579 16.8015 15.8464 13.713 19.6418 13.713C23.4372 13.713 26.5257 16.8015 26.5257 20.5969C26.5257 24.3922 23.4372 27.4808 19.6418 27.4808ZM26.5257 15.6798C25.4414 15.6798 24.5589 14.7973 24.5589 13.713C24.5589 12.6286 25.4414 11.7461 26.5257 11.7461C27.61 11.7461 28.4925 12.6286 28.4925 13.713C28.4925 14.7973 27.61 15.6798 26.5257 15.6798Z" fill="#FFD446"/>
<path d="M19.6425 16.7227C17.5082 16.7227 15.7715 18.4594 15.7715 20.5937C15.7715 22.728 17.5082 24.4647 19.6425 24.4647C21.7768 24.4647 23.5136 22.728 23.5136 20.5937C23.5136 18.4594 21.7768 16.7227 19.6425 16.7227Z" fill="#FFD446"/>
<path d="M33.353 1.0957H5.93316C2.78357 1.0957 0.144531 3.73474 0.144531 6.88433V34.3042C0.144531 37.4537 2.78357 40.0928 5.93316 40.0928H33.353C36.5026 40.0928 39.1416 37.4537 39.1416 34.3042V6.88433C39.1416 3.73474 36.5026 1.0957 33.353 1.0957ZM34.4955 29.7342C34.4955 32.8838 31.9326 35.4466 28.783 35.4466H10.5031C7.35354 35.4466 4.79067 32.8838 4.79067 29.7342V11.4543C4.79067 8.30471 7.35354 5.74184 10.5031 5.74184H28.783C31.9326 5.74184 34.4955 8.30471 34.4955 11.4543V29.7342Z" fill="#FFD446"/>
</g>
</g>
<defs>
<clipPath id="clip0_3419_5321">
<rect width="40" height="40" fill="white" transform="translate(0 0.160156)"/>
</clipPath>
<clipPath id="clip1_3419_5321">
<rect width="38.9971" height="38.9971" fill="white" transform="translate(0.144531 1.0957)"/>
</clipPath>
</defs>
</svg>
