<svg width="251" height="251" viewBox="0 0 251 251" fill="none" xmlns="http://www.w3.org/2000/svg">
<path d="M102.726 30.1623C106.909 22.4792 117.377 21.1263 123.376 27.4936C127.985 32.386 135.585 32.9022 140.813 28.6781C147.618 23.1806 157.807 25.9367 160.913 34.1149C163.299 40.3988 170.123 43.7841 176.57 41.8824C184.96 39.4074 193.319 45.853 193.059 54.597C192.859 61.3158 197.868 67.0548 204.552 67.765C213.251 68.6894 218.506 77.8431 214.92 85.8218C212.164 91.9525 214.595 99.1715 220.498 102.386C228.181 106.568 229.534 117.037 223.167 123.036C218.275 127.645 217.759 135.245 221.983 140.473C227.48 147.278 224.724 157.467 216.546 160.573C210.262 162.959 206.877 169.783 208.778 176.23C211.253 184.62 204.808 192.979 196.064 192.719C189.345 192.519 183.606 197.527 182.896 204.211C181.971 212.91 172.818 218.166 164.839 214.58C158.708 211.823 151.489 214.255 148.275 220.158C144.092 227.841 133.624 229.194 127.625 222.827C123.016 217.935 115.416 217.418 110.187 221.643C103.383 227.14 93.1935 224.384 90.088 216.206C87.7018 209.922 80.8779 206.537 74.4308 208.438C66.0403 210.913 57.6815 204.468 57.942 195.724C58.1422 189.005 53.1333 183.266 46.4492 182.556C37.7502 181.631 32.4943 172.478 36.0812 164.499C38.8373 158.368 36.4059 151.149 30.5024 147.935C22.8193 143.752 21.4664 133.284 27.8336 127.285C32.726 122.676 33.2423 115.076 29.0182 109.847C23.5207 103.043 26.2768 92.8534 34.455 89.7479C40.7389 87.3617 44.1242 80.5378 42.2225 74.0908C39.7475 65.7002 46.1931 57.3414 54.9371 57.6019C61.6559 57.8021 67.3948 52.7932 68.1051 46.1091C69.0295 37.4102 78.1832 32.1542 86.1619 35.7411C92.2926 38.4972 99.5116 36.0658 102.726 30.1623Z" fill="#0E986A"/>
<rect x="38.2741" y="57.8994" width="155.772" height="155.772" rx="77.886" transform="rotate(-7.36395 38.2741 57.8994)" stroke="white" stroke-width="1.63971" stroke-dasharray="9.84 6.56"/>
<path d="M90.3877 142.534C89.2538 142.681 88.1916 142.595 87.2012 142.278C86.2108 141.96 85.3838 141.408 84.7203 140.622C84.0652 139.825 83.6563 138.798 83.4938 137.54L82.6792 131.237L87.653 130.594L88.4288 136.597C88.4854 137.035 88.6168 137.377 88.8227 137.621C89.0383 137.865 89.3414 137.961 89.732 137.911C90.4848 137.813 90.8014 137.303 90.682 136.378L88.1791 117.012L93.253 116.356L95.6912 135.222C95.8636 136.556 95.7512 137.748 95.354 138.797C94.9555 139.837 94.3286 140.683 93.4733 141.336C92.6168 141.98 91.5882 142.379 90.3877 142.534ZM105.066 140.637C103.055 140.897 101.438 140.491 100.215 139.419C98.9992 138.336 98.2432 136.646 97.9464 134.35L96.4022 122.401C96.1239 120.248 96.4368 118.546 97.3408 117.296C98.2544 116.044 99.726 115.287 101.756 115.025C103.785 114.763 105.396 115.121 106.588 116.1C107.79 117.079 108.53 118.644 108.808 120.798L110.352 132.746C110.649 135.043 110.343 136.87 109.433 138.227C108.532 139.574 107.076 140.377 105.066 140.637ZM104.51 136.001C105.272 135.902 105.558 135.115 105.367 133.638L103.78 121.36C103.62 120.122 103.169 119.55 102.425 119.646C101.587 119.755 101.25 120.443 101.413 121.71L102.998 133.973C103.099 134.754 103.267 135.304 103.502 135.623C103.736 135.931 104.072 136.058 104.51 136.001ZM113.625 139.298L110.374 114.143L115.234 113.515L118.485 138.67L113.625 139.298ZM121.071 138.336L117.82 113.181L122.994 112.513L126.867 124.262L125.31 112.213L130.169 111.585L133.42 136.74L128.503 137.376L124.362 125.123L125.988 137.701L121.071 138.336ZM149.528 134.891C147.431 135.162 145.812 134.775 144.67 133.732C143.526 132.678 142.806 131.008 142.511 128.721L140.13 110.298L145.018 109.666L147.373 127.889C147.427 128.309 147.503 128.71 147.602 129.095C147.698 129.47 147.849 129.77 148.052 129.996C148.256 130.221 148.548 130.31 148.929 130.26C149.32 130.21 149.586 130.054 149.726 129.794C149.866 129.524 149.929 129.191 149.917 128.796C149.914 128.399 149.886 127.991 149.831 127.572L147.476 109.349L152.364 108.717L154.745 127.14C155.041 129.427 154.77 131.225 153.931 132.535C153.092 133.835 151.624 134.62 149.528 134.891ZM164.134 133.003C161.838 133.3 160.106 132.943 158.939 131.931C157.781 130.918 157.041 129.164 156.718 126.667L156.4 124.209L161.374 123.566L161.781 126.71C161.856 127.292 162 127.738 162.215 128.049C162.438 128.35 162.769 128.472 163.207 128.415C163.664 128.356 163.961 128.182 164.099 127.893C164.245 127.603 164.279 127.153 164.2 126.543C164.1 125.771 163.941 125.138 163.722 124.643C163.502 124.139 163.171 123.678 162.73 123.26C162.296 122.832 161.706 122.346 160.957 121.803L158.422 119.951C156.53 118.578 155.451 116.867 155.187 114.818C154.91 112.675 155.194 110.976 156.04 109.724C156.895 108.47 158.266 107.722 160.152 107.478C162.458 107.18 164.172 107.583 165.293 108.688C166.424 109.792 167.151 111.596 167.475 114.102L162.358 114.764L162.135 113.034C162.09 112.691 161.956 112.437 161.731 112.273C161.516 112.107 161.241 112.045 160.908 112.088C160.508 112.14 160.227 112.293 160.066 112.546C159.913 112.788 159.86 113.086 159.905 113.438C159.951 113.791 160.096 114.16 160.339 114.545C160.583 114.93 161.02 115.353 161.651 115.814L164.913 118.226C165.565 118.704 166.175 119.221 166.741 119.777C167.305 120.324 167.788 120.988 168.19 121.77C168.59 122.541 168.865 123.513 169.017 124.685C169.322 127.048 169.124 128.958 168.421 130.415C167.726 131.861 166.297 132.724 164.134 133.003Z" fill="white"/>
</svg>
