<svg width="40" height="41" viewBox="0 0 40 41" fill="none" xmlns="http://www.w3.org/2000/svg">
<g clip-path="url(#clip0_3419_5329)">
<path d="M39.498 33.9036C39.498 36.8958 37.0735 39.3203 34.0814 39.3203H5.91471C2.92363 39.3203 0.498047 36.8958 0.498047 33.9036V5.73698C0.498047 2.74481 2.92363 0.320312 5.91471 0.320312H34.0814C37.0735 0.320312 39.498 2.74481 39.498 5.73698V33.9036Z" fill="#FFD446"/>
<path d="M7 14.3958H12.4167V32.8125H7V14.3958ZM9.69208 12.2292H9.66175C8.04542 12.2292 7 11.0245 7 9.51975C7 7.9825 8.07792 6.8125 9.7235 6.8125C11.3713 6.8125 12.3863 7.9825 12.4167 9.51975C12.4167 11.0234 11.3712 12.2292 9.69208 12.2292ZM33 32.8125H27.5833V22.9552C27.5833 20.5741 26.2563 18.9491 24.1253 18.9491C22.4993 18.9491 21.6196 20.0454 21.1927 21.1049C21.0368 21.4841 21.0833 22.5328 21.0833 23.0625V32.8125H15.6667V14.3958H21.0833V17.2298C21.8644 16.0208 23.0875 14.3958 26.2162 14.3958C30.0923 14.3958 32.9989 16.8333 32.9989 22.276L33 32.8125Z" fill="#151304"/>
</g>
<defs>
<clipPath id="clip0_3419_5329">
<rect width="40" height="40" fill="white" transform="translate(0 0.160156)"/>
</clipPath>
</defs>
</svg>
