<svg width="40" height="41" viewBox="0 0 40 41" fill="none" xmlns="http://www.w3.org/2000/svg">
<g clip-path="url(#clip0_3419_5326)">
<path d="M39.498 33.9036C39.498 36.8958 37.0735 39.3203 34.0814 39.3203H5.91471C2.92363 39.3203 0.498047 36.8958 0.498047 33.9036V5.73698C0.498047 2.74481 2.92363 0.320312 5.91471 0.320312H34.0814C37.0735 0.320312 39.498 2.74481 39.498 5.73698V33.9036Z" fill="#FFD446"/>
<path d="M33.2288 11.3775C32.2136 11.8209 31.1398 12.1154 30.0405 12.252C31.1993 11.5648 32.0656 10.4761 32.4749 9.19251C31.3903 9.83631 30.2034 10.2897 28.9658 10.5331C28.2074 9.72203 27.2225 9.15794 26.1391 8.91421C25.0558 8.67048 23.9242 8.75839 22.8915 9.1665C21.8588 9.57461 20.9728 10.284 20.3487 11.2025C19.7247 12.121 19.3915 13.206 19.3924 14.3164C19.3885 14.7402 19.4318 15.1632 19.5213 15.5775C17.3198 15.4694 15.1658 14.898 13.2002 13.9008C11.2345 12.9035 9.50133 11.5028 8.11385 9.79016C7.40067 11.0085 7.17972 12.4532 7.49616 13.8291C7.8126 15.2049 8.64253 16.4079 9.81633 17.1922C8.94021 17.1686 8.08264 16.9345 7.31607 16.5096V16.5699C7.31854 17.847 7.76057 19.0843 8.56788 20.0738C9.37518 21.0633 10.4985 21.7448 11.7491 22.0036C11.2758 22.1279 10.7881 22.1888 10.2988 22.1845C9.94651 22.191 9.5945 22.1598 9.24884 22.0913C9.60712 23.1896 10.2969 24.15 11.2233 24.8402C12.1497 25.5305 13.2672 25.9167 14.4221 25.9459C12.465 27.4756 10.0523 28.3065 7.56829 28.3063C7.12569 28.3101 6.68334 28.2844 6.24414 28.2296C8.77694 29.8626 11.7292 30.7254 14.7428 30.7134C24.9275 30.7134 30.4956 22.2777 30.4956 14.9661C30.4956 14.7221 30.4955 14.4864 30.4764 14.2506C31.5607 13.468 32.4934 12.4944 33.2288 11.3775Z" fill="#151304"/>
</g>
<defs>
<clipPath id="clip0_3419_5326">
<rect width="40" height="40" fill="white" transform="translate(0 0.160156)"/>
</clipPath>
</defs>
</svg>
